<svg data-v-1084b650="" xmlns="http://www.w3.org/2000/svg" viewBox="0 0 300 300"><!----> <!----> <rect data-v-1084b650="" fill="#437085" x="0" y="0" width="300px" height="300px" class="logo-background-square"></rect> <!----> <g data-v-1084b650="" id="2dfeefb6-24de-01a7-ef3f-e6fc6cc77b44" fill="#ECEBE7" transform="matrix(3.0999999999999996,0,0,3.0999999999999996,36.13701024055483,175.10069651007652)"><path d="M11.10 5.31L11.10 10.50L9.28 10.50L9.28 5.59L9.28 5.59Q9.28 4.48 8.23 4.48L8.23 4.48L8.23 4.48Q7.39 4.48 6.86 5.28L6.86 5.28L6.86 10.50L5.05 10.50L5.05 5.59L5.05 5.59Q5.05 4.48 3.99 4.48L3.99 4.48L3.99 4.48Q3.14 4.48 2.63 5.28L2.63 5.28L2.63 10.50L0.81 10.50L0.81 5.18L0.69 3.08L2.30 3.08L2.45 4.00L2.45 4.00Q3.23 2.90 4.70 2.90L4.70 2.90L4.70 2.90Q6.12 2.90 6.62 4.07L6.62 4.07L6.62 4.07Q7.38 2.90 8.93 2.90L8.93 2.90L8.93 2.90Q10.01 2.90 10.56 3.56L10.56 3.56L10.56 3.56Q11.10 4.21 11.10 5.31L11.10 5.31ZM18.70 10.50L17.09 10.50L16.95 9.65L16.95 9.65Q16.06 10.68 14.53 10.68L14.53 10.68L14.53 10.68Q13.41 10.68 12.85 10.07L12.85 10.07L12.85 10.07Q12.29 9.45 12.29 8.50L12.29 8.50L12.29 8.36L12.29 8.36Q12.29 7.24 12.97 6.73L12.97 6.73L12.97 6.73Q13.65 6.22 14.88 6.03L14.88 6.03L16.77 5.74L16.77 5.71L16.77 5.71Q16.77 4.98 16.50 4.65L16.50 4.65L16.50 4.65Q16.23 4.31 15.54 4.31L15.54 4.31L15.54 4.31Q14.31 4.31 14.31 5.53L14.31 5.53L12.57 5.53L12.57 5.40L12.57 5.40Q12.57 4.33 13.27 3.61L13.27 3.61L13.27 3.61Q13.96 2.90 15.58 2.90L15.58 2.90L15.58 2.90Q17.23 2.90 17.91 3.61L17.91 3.61L17.91 3.61Q18.59 4.33 18.59 5.71L18.59 5.71L18.59 8.40L18.70 10.50ZM15.16 9.18L15.16 9.18L15.16 9.18Q16.20 9.18 16.77 8.41L16.77 8.41L16.77 6.85L15.22 7.10L15.22 7.10Q14.11 7.28 14.11 8.16L14.11 8.16L14.11 8.27L14.11 8.27Q14.11 8.65 14.38 8.92L14.38 8.92L14.38 8.92Q14.64 9.18 15.16 9.18ZM20.08 8.15L20.08 3.08L21.88 3.08L21.88 7.87L21.88 7.87Q21.88 9.09 23.07 9.09L23.07 9.09L23.07 9.09Q24.08 9.09 24.61 8.25L24.61 8.25L24.61 3.08L26.43 3.08L26.43 8.40L26.54 10.50L24.93 10.50L24.77 9.52L24.77 9.52Q23.97 10.68 22.36 10.68L22.36 10.68L22.36 10.68Q21.21 10.68 20.64 9.97L20.64 9.97L20.64 9.97Q20.08 9.25 20.08 8.15L20.08 8.15ZM29.89 10.50L28.07 10.50L28.07-0.70L29.89-0.70L29.89 10.50ZM33.39 10.50L31.57 10.50L31.57 3.08L33.39 3.08L33.39 10.50ZM31.49-0.18L33.47-0.18L33.47 1.79L31.49 1.79L31.49-0.18ZM36.81 10.50L34.99 10.50L34.99-0.70L36.81-0.70L36.81 6.08L39.34 3.08L41.54 3.08L39.05 5.89L41.54 10.50L39.42 10.50L37.80 7.31L36.81 8.44L36.81 10.50ZM47.91 0.98L47.91 3.08L49.97 3.08L49.97 4.68L47.91 4.68L47.91 7.88L47.91 7.88Q47.91 8.58 48.20 8.83L48.20 8.83L48.20 8.83Q48.50 9.09 49.11 9.09L49.11 9.09L49.11 9.09Q49.63 9.09 49.83 8.99L49.83 8.99L49.83 10.50L49.83 10.50Q49.46 10.68 48.68 10.68L48.68 10.68L48.68 10.68Q46.09 10.68 46.09 8.08L46.09 8.08L46.09 4.68L44.95 4.68L44.95 3.08L46.09 3.08L46.09 0.98L47.91 0.98ZM57.75 6.61L57.75 7.46L52.85 7.46L52.85 7.46Q52.95 9.27 54.52 9.27L54.52 9.27L54.52 9.27Q55.22 9.27 55.62 8.93L55.62 8.93L55.62 8.93Q56.03 8.58 56.03 8.12L56.03 8.12L57.75 8.12L57.75 8.18L57.75 8.18Q57.75 9.23 56.89 9.95L56.89 9.95L56.89 9.95Q56.03 10.68 54.50 10.68L54.50 10.68L54.50 10.68Q52.78 10.68 51.91 9.66L51.91 9.66L51.91 9.66Q51.03 8.64 51.03 6.97L51.03 6.97L51.03 6.61L51.03 6.61Q51.03 4.94 51.90 3.92L51.90 3.92L51.90 3.92Q52.77 2.90 54.43 2.90L54.43 2.90L54.43 2.90Q56.07 2.90 56.91 3.92L56.91 3.92L56.91 3.92Q57.75 4.94 57.75 6.61L57.75 6.61ZM54.39 4.31L54.39 4.31L54.39 4.31Q52.96 4.31 52.85 6.12L52.85 6.12L55.92 6.12L55.92 6.12Q55.83 4.31 54.39 4.31ZM60.59 6.57L60.59 7.01L60.59 7.01Q60.59 9.09 62.09 9.09L62.09 9.09L62.09 9.09Q62.75 9.09 63.08 8.73L63.08 8.73L63.08 8.73Q63.41 8.37 63.41 7.80L63.41 7.80L65.13 7.80L65.13 8.09L65.13 8.09Q65.13 9.23 64.34 9.95L64.34 9.95L64.34 9.95Q63.55 10.68 62.05 10.68L62.05 10.68L62.05 10.68Q60.41 10.68 59.59 9.68L59.59 9.68L59.59 9.68Q58.77 8.68 58.77 7.01L58.77 7.01L58.77 6.57L58.77 6.57Q58.77 4.89 59.59 3.89L59.59 3.89L59.59 3.89Q60.41 2.90 62.05 2.90L62.05 2.90L62.05 2.90Q63.56 2.90 64.34 3.65L64.34 3.65L64.34 3.65Q65.13 4.41 65.13 5.60L65.13 5.60L65.13 5.91L63.41 5.91L63.41 5.91Q63.41 5.24 63.08 4.86L63.08 4.86L63.08 4.86Q62.75 4.48 62.09 4.48L62.09 4.48L62.09 4.48Q60.59 4.48 60.59 6.57L60.59 6.57ZM66.43-0.70L68.25-0.70L68.25 3.84L68.25 3.84Q69.05 2.90 70.49 2.90L70.49 2.90L70.49 2.90Q71.64 2.90 72.20 3.61L72.20 3.61L72.20 3.61Q72.77 4.33 72.77 5.42L72.77 5.42L72.77 10.50L70.97 10.50L70.97 5.71L70.97 5.71Q70.97 5.15 70.67 4.82L70.67 4.82L70.67 4.82Q70.38 4.48 69.79 4.48L69.79 4.48L69.79 4.48Q68.77 4.48 68.25 5.33L68.25 5.33L68.25 10.50L66.43 10.50L66.43-0.70Z"></path></g> <!----> <g data-v-1084b650="" id="1eeaa5bb-8c73-798d-e2e0-8abe98fcbfdc" stroke="#ECEBE7" fill="#ECEBE7" transform="matrix(0.33124882962222385,0,0,0.33124882962222385,99.30955007664136,85.40698929907572)"><svg xmlns:dc="http://purl.org/dc/elements/1.1/" xmlns:cc="http://creativecommons.org/ns#" xmlns:rdf="http://www.w3.org/1999/02/22-rdf-syntax-ns#" xmlns:svg="http://www.w3.org/2000/svg" xmlns="http://www.w3.org/2000/svg" xmlns:sodipodi="http://sodipodi.sourceforge.net/DTD/sodipodi-0.dtd" xmlns:inkscape="http://www.inkscape.org/namespaces/inkscape" viewBox="0 0 80 80" version="1.1" x="0px" y="0px"><path style="text-indent:0;text-transform:none;direction:ltr;block-progression:tb;baseline-shift:baseline;color:#000000;enable-background:accumulate;" d="m 15.6,14.8 c -0.970976,0 -1.75,0.804024 -1.75,1.775 l 0,34.8 c 0,0.970976 0.779024,1.75 1.75,1.75 l 46.75,0 c 0.970976,0 1.75,-0.779024 1.75,-1.75 l 0,-34.8 C 64.1,15.604024 63.320976,14.8 62.35,14.8 l -46.75,0 z m 0,0.8 46.75,0 c 0.541614,0 0.95,0.433386 0.95,0.975 l 0,34.8 c 0,0.541614 -0.408386,0.95 -0.95,0.95 l -46.75,0 c -0.541614,0 -0.95,-0.408386 -0.95,-0.95 l 0,-34.8 c 0,-0.541614 0.408386,-0.975 0.95,-0.975 z" fill-opacity="1" marker="none" visibility="visible" display="inline" overflow="visible"></path><path style="text-indent:0;text-transform:none;direction:ltr;block-progression:tb;baseline-shift:baseline;color:#000000;enable-background:accumulate;" d="M 15.9375,16.96875 A 0.40004001,0.40004001 0 0 0 15.625,17.375 l 0,33.1875 a 0.40004001,0.40004001 0 0 0 0.40625,0.40625 l 45.90625,0 a 0.40004001,0.40004001 0 0 0 0.375,-0.40625 l 0,-33.1875 a 0.40004001,0.40004001 0 0 0 -0.375,-0.40625 l -45.90625,0 a 0.40004001,0.40004001 0 0 0 -0.09375,0 z m 0.5,0.8125 45.09375,0 0,32.375 -45.09375,0 0,-32.375 z" fill="#000000" fill-opacity="1" stroke="none" marker="none" visibility="visible" display="inline" overflow="visible"></path><path style="text-indent:0;text-transform:none;direction:ltr;block-progression:tb;baseline-shift:baseline;color:#000000;enable-background:accumulate;" d="m 39.025,19.625 c -4.988148,0.0037 -9.943668,0.365084 -14.875,1.1 -0.755099,0.112532 -1.255266,0.70979 -1.425,1.4 -1.745503,7.09794 -1.696045,14.206782 0,21.3 0.16626,0.695337 0.676478,1.280308 1.425,1.4 10.2354,1.636686 20.16359,1.325775 29.925,0 0.765565,-0.103978 1.237137,-0.732619 1.425,-1.4 2.004916,-7.122409 1.417826,-14.208663 0,-21.275 -0.14388,-0.717086 -0.673743,-1.313372 -1.425,-1.425 -5.045365,-0.749682 -10.061852,-1.103698 -15.05,-1.1 z m 0,0.8 c 4.948464,-0.0037 9.943292,0.356062 14.95,1.1 0.445674,0.06622 0.655829,0.305661 0.75,0.775 1.405742,7.006119 1.956398,13.974953 0,20.925 -0.140022,0.497422 -0.316501,0.741123 -0.75,0.8 -9.706171,1.318273 -19.559789,1.621466 -29.7,0 -0.44637,-0.07138 -0.659855,-0.318441 -0.775,-0.8 -1.668792,-6.979238 -1.715151,-13.925484 0,-20.9 0.119234,-0.484853 0.333245,-0.734166 0.775,-0.8 4.89322,-0.729237 9.801536,-1.096331 14.75,-1.1 z" fill="#000000" fill-opacity="1" stroke="none" marker="none" visibility="visible" display="inline" overflow="visible"></path><path transform="matrix(0.57777777,0,0,0.57777777,7.5581146,14.218538)" style="" d="m 33.915528,60.431885 c 0,0.530123 -0.42975,0.959873 -0.959874,0.959873 -0.530123,0 -0.959873,-0.42975 -0.959873,-0.959873 0,-0.530124 0.42975,-0.959874 0.959873,-0.959874 0.530124,0 0.959874,0.42975 0.959874,0.959874 z" fill="#000000" stroke="none"></path><path transform="matrix(0.57777777,0,0,0.57777777,11.141642,14.28253)" style="" d="m 33.915528,60.431885 c 0,0.530123 -0.42975,0.959873 -0.959874,0.959873 -0.530123,0 -0.959873,-0.42975 -0.959873,-0.959873 0,-0.530124 0.42975,-0.959874 0.959873,-0.959874 0.530124,0 0.959874,0.42975 0.959874,0.959874 z" fill="#000000" stroke="none"></path><path transform="matrix(0.57777777,0,0,0.57777777,14.213237,14.218538)" style="" d="m 33.915528,60.431885 c 0,0.530123 -0.42975,0.959873 -0.959874,0.959873 -0.530123,0 -0.959873,-0.42975 -0.959873,-0.959873 0,-0.530124 0.42975,-0.959874 0.959873,-0.959874 0.530124,0 0.959874,0.42975 0.959874,0.959874 z" fill="#000000" stroke="none"></path><path transform="matrix(0.57777777,0,0,0.57777777,18.01007,14.261199)" style="" d="m 33.915528,60.431885 c 0,0.530123 -0.42975,0.959873 -0.959874,0.959873 -0.530123,0 -0.959873,-0.42975 -0.959873,-0.959873 0,-0.530124 0.42975,-0.959874 0.959873,-0.959874 0.530124,0 0.959874,0.42975 0.959874,0.959874 z" fill="#000000" stroke="none"></path><path transform="matrix(0.57777777,0,0,0.57777777,21.593598,14.154546)" style="" d="m 33.915528,60.431885 c 0,0.530123 -0.42975,0.959873 -0.959874,0.959873 -0.530123,0 -0.959873,-0.42975 -0.959873,-0.959873 0,-0.530124 0.42975,-0.959874 0.959873,-0.959874 0.530124,0 0.959874,0.42975 0.959874,0.959874 z" fill="#000000" stroke="none"></path><path transform="matrix(0.57777777,0,0,0.57777777,25.155795,14.30386)" style="" d="m 33.915528,60.431885 c 0,0.530123 -0.42975,0.959873 -0.959874,0.959873 -0.530123,0 -0.959873,-0.42975 -0.959873,-0.959873 0,-0.530124 0.42975,-0.959874 0.959873,-0.959874 0.530124,0 0.959874,0.42975 0.959874,0.959874 z" fill="#000000" stroke="none"></path><path transform="matrix(0.57777777,0,0,0.57777777,28.824645,14.197207)" style="" d="m 33.915528,60.431885 c 0,0.530123 -0.42975,0.959873 -0.959874,0.959873 -0.530123,0 -0.959873,-0.42975 -0.959873,-0.959873 0,-0.530124 0.42975,-0.959874 0.959873,-0.959874 0.530124,0 0.959874,0.42975 0.959874,0.959874 z" fill="#000000" stroke="none"></path><path transform="matrix(0.57777777,0,0,0.57777777,32.194867,14.154546)" style="" d="m 33.915528,60.431885 c 0,0.530123 -0.42975,0.959873 -0.959874,0.959873 -0.530123,0 -0.959873,-0.42975 -0.959873,-0.959873 0,-0.530124 0.42975,-0.959874 0.959873,-0.959874 0.530124,0 0.959874,0.42975 0.959874,0.959874 z" fill="#000000" stroke="none"></path><path style="text-indent:0;text-transform:none;direction:ltr;block-progression:tb;baseline-shift:baseline;color:#000000;enable-background:accumulate;" d="M 6.84375 63.5 A 0.50005001 0.50005001 0 0 0 6.53125 63.90625 L 2.5 82.875 A 0.50005001 0.50005001 0 0 0 2.5 83 L 2.5 89 A 0.50005001 0.50005001 0 0 0 3 89.5 L 96 89.5 A 0.50005001 0.50005001 0 0 0 96.5 89 L 96.5 83 A 0.50005001 0.50005001 0 0 0 96.5 82.875 L 92.5 63.90625 A 0.50005001 0.50005001 0 0 0 92 63.5 L 80 63.5 L 80 64.5 L 91.59375 64.5 L 95.5 83 L 95.5 83.09375 L 95.5 88.5 L 3.5 88.5 L 3.5 83 L 7.4375 64.5 L 18 64.5 L 18 63.5 L 7 63.5 A 0.50005001 0.50005001 0 0 0 6.84375 63.5 z " transform="scale(0.8,0.8)" fill="#000000" fill-opacity="1" stroke="none" marker="none" visibility="visible" display="inline" overflow="visible"></path><path style="text-indent:0;text-transform:none;direction:ltr;block-progression:tb;baseline-shift:baseline;color:#000000;enable-background:accumulate;" d="M 6.28125,54.8125 A 0.40004001,0.40004001 0 0 0 6,55.125 L 3.59375,66.3125 a 0.40004001,0.40004001 0 0 0 0,0.09375 l 0,1.59375 A 0.40004001,0.40004001 0 0 0 4,68.40625 l 71.1875,0 A 0.40004001,0.40004001 0 0 0 75.59375,68 l 0,-1.59375 a 0.40004001,0.40004001 0 0 0 0,-0.09375 L 73.1875,55.125 a 0.40004001,0.40004001 0 0 0 -0.375,-0.3125 l -66.40625,0 a 0.40004001,0.40004001 0 0 0 -0.125,0 z m 0.4375,0.78125 65.75,0 2.34375,10.8125 0,0.0625 0,1.125 -70.40625,0 0,-1.125 0,-0.0625 2.3125,-10.8125 z" fill="#000000" fill-opacity="1" stroke="none" marker="none" visibility="visible" display="inline" overflow="visible"></path></svg></g></svg>